<svg width="330" height="330" viewBox="0 0 330 330" fill="none" xmlns="http://www.w3.org/2000/svg">
<rect width="330" height="330" rx="16" fill="#212121"/>
<path d="M105.75 206.625C103.917 206.625 101.667 206.292 99 205.625C96.3333 204.875 93.7083 203.375 91.125 201.125C88.5417 198.792 86.3333 195.208 84.5 190.375L81.375 182.25H46.375L36.375 206H30.75L65.75 123.5H69.5L97 190.375C99 195.042 100.917 198.333 102.75 200.25C104.583 202.083 107.25 203.167 110.75 203.5V206C110.083 206.167 109.292 206.292 108.375 206.375C107.542 206.542 106.667 206.625 105.75 206.625ZM48.25 177.25H78.875L63.875 141L48.25 177.25ZM133.721 207.25C129.304 207.25 125.679 205.958 122.846 203.375C120.096 200.792 118.721 196.667 118.721 191V152.25H109.971V147.25H118.721V136L124.971 128.5H129.971V147.25H144.971V152.25H129.971V191C129.971 194.75 130.679 197.583 132.096 199.5C133.596 201.333 135.804 202.25 138.721 202.25C140.887 202.25 142.679 202 144.096 201.5C145.512 201 146.846 200.417 148.096 199.75L149.346 202.25C148.012 203.25 146.179 204.333 143.846 205.5C141.512 206.667 138.137 207.25 133.721 207.25ZM159.082 206V138.5C159.082 134.75 158.54 131.75 157.457 129.5C156.457 127.167 154.082 126 150.332 126H147.832V123.5H159.082C161.999 123.5 164.249 123.875 165.832 124.625C167.499 125.375 168.665 126.833 169.332 129C169.999 131.167 170.332 134.333 170.332 138.5V206H159.082ZM202.855 207.25C201.105 207.25 199.189 206.958 197.105 206.375C195.105 205.875 193.147 204.958 191.23 203.625C189.314 202.292 187.73 200.5 186.48 198.25C185.314 196 184.73 193.167 184.73 189.75C184.73 185.167 186.189 181.625 189.105 179.125C192.105 176.625 196.022 174.875 200.855 173.875C205.772 172.792 211.022 172.25 216.605 172.25H220.355C220.355 166.417 219.772 162 218.605 159C217.439 155.917 215.855 153.833 213.855 152.75C211.939 151.583 209.73 151 207.23 151C203.73 151 200.772 151.75 198.355 153.25C196.022 154.75 194.397 157.542 193.48 161.625H187.855C187.855 159.458 187.98 157.458 188.23 155.625C188.48 153.708 189.397 151.958 190.98 150.375C192.564 148.792 195.147 147.667 198.73 147C202.314 146.333 205.98 146 209.73 146C212.564 146 215.272 146.333 217.855 147C220.522 147.667 222.855 148.917 224.855 150.75C226.939 152.5 228.564 155.125 229.73 158.625C230.98 162.042 231.605 166.583 231.605 172.25V206H225.355L220.98 200.375H220.355C219.105 201.958 217.064 203.5 214.23 205C211.397 206.5 207.605 207.25 202.855 207.25ZM208.48 201.625C211.564 201.625 213.98 200.875 215.73 199.375C217.564 197.792 219.105 196.042 220.355 194.125V177.25H216.605C210.355 177.25 205.439 178.417 201.855 180.75C198.355 183 196.605 186 196.605 189.75C196.605 193.833 197.814 196.833 200.23 198.75C202.647 200.667 205.397 201.625 208.48 201.625ZM268.661 207.25C263.661 207.25 259.578 206.833 256.411 206C253.244 205.083 250.869 203.833 249.286 202.25C247.703 200.667 246.786 198.875 246.536 196.875C246.286 194.875 246.161 192.292 246.161 189.125H248.661C249.328 193.208 251.078 196.417 253.911 198.75C256.744 201.083 260.828 202.25 266.161 202.25C270.911 202.25 274.369 201.417 276.536 199.75C278.786 198.083 279.911 196 279.911 193.5C279.911 191 278.953 188.917 277.036 187.25C275.203 185.5 272.411 183.833 268.661 182.25L261.161 179.125C256.411 177.208 252.703 174.958 250.036 172.375C247.453 169.708 246.161 166.333 246.161 162.25C246.161 157 248.119 153 252.036 150.25C255.953 147.417 260.869 146 266.786 146C271.536 146 275.453 146.458 278.536 147.375C281.619 148.208 283.953 149.417 285.536 151C287.119 152.583 288.036 154.375 288.286 156.375C288.536 158.375 288.661 160.958 288.661 164.125H286.161C285.494 160.042 283.744 156.833 280.911 154.5C278.161 152.167 274.286 151 269.286 151C265.203 151 262.078 151.833 259.911 153.5C257.828 155.167 256.786 157.25 256.786 159.75C256.786 161.917 257.661 163.917 259.411 165.75C261.161 167.5 263.619 169.042 266.786 170.375L274.286 173.5C279.619 175.667 283.661 178.042 286.411 180.625C289.161 183.208 290.536 186.667 290.536 191C290.536 196.25 288.453 200.292 284.286 203.125C280.119 205.875 274.911 207.25 268.661 207.25Z" fill="white"/>
</svg>
